<svg width="320" height="77" viewBox="0 0 320 77" fill="none" xmlns="http://www.w3.org/2000/svg">
<g clip-path="url(#clip0)">
<path fill-rule="evenodd" clip-rule="evenodd" d="M270.727 5.36255H260.669L260.67 61.8398H270.727V5.36255Z" fill="white"/>
<path fill-rule="evenodd" clip-rule="evenodd" d="M289.01 37.934C289.938 31.8214 294.116 27.9539 300.072 27.9539C306.34 27.9539 310.441 31.8214 310.672 37.934H289.01ZM299.995 20.1397C287.616 20.1397 278.952 28.6502 278.952 41.2615C278.952 53.7164 287.385 62.227 300.229 62.227C307.5 62.227 313.534 59.5958 317.636 55.109L312.219 49.4618C309.28 52.4778 305.333 54.1025 301.079 54.1025C295.043 54.1025 290.556 50.5453 289.241 44.6648H319.801C320.806 29.6568 314.539 20.1397 299.995 20.1397Z" fill="white"/>
<path fill-rule="evenodd" clip-rule="evenodd" d="M86.7512 20.0628C80.0204 20.1386 74.8362 22.6916 71.8971 28.1849V20.4488H61.8389V61.8399H71.8971V41.4937C71.8971 34.6848 75.9197 29.6569 82.7286 29.5787C88.454 29.5787 91.9342 33.1371 91.9342 38.9407V61.8399H102.069V36.0004C102.069 26.1755 96.2671 20.0628 86.7512 20.0628Z" fill="white"/>
<path fill-rule="evenodd" clip-rule="evenodd" d="M111.217 61.84H121.274V20.449H111.217V61.84Z" fill="white"/>
<path fill-rule="evenodd" clip-rule="evenodd" d="M184.655 20.0628C177.382 20.1386 171.966 23.2352 169.259 29.9647C167.324 23.6994 162.296 20.0628 155.023 20.0628C148.446 20.1386 143.341 22.6159 140.479 28.108V20.4488H130.422V61.8399H140.479V41.4155C140.479 34.6848 144.425 29.7326 151.001 29.5018C156.571 29.5018 159.975 33.0601 159.975 38.9407V61.8399H170.11V41.4155C170.11 34.6848 174.055 29.7326 180.555 29.5018C186.124 29.5018 189.606 33.0601 189.606 38.9407V61.8399H199.743V36.0004C199.743 26.1755 194.016 20.0628 184.655 20.0628Z" fill="white"/>
<path fill-rule="evenodd" clip-rule="evenodd" d="M230.628 53.5625C223.742 53.5625 218.947 48.4552 218.947 41.0282C218.947 33.7563 223.742 28.5733 230.628 28.5733C237.436 28.5733 242.233 33.7563 242.233 41.0282C242.233 48.3783 237.436 53.5625 230.628 53.5625ZM232.872 20.1397C226.684 20.1397 221.886 22.6927 218.947 27.2576V5.36255H208.888V61.8398H218.947V55.109C221.964 59.674 226.76 62.227 233.026 62.227C244.787 62.227 252.445 53.7934 252.445 41.3372C252.445 28.6502 244.554 20.1397 232.872 20.1397Z" fill="white"/>
<path fill-rule="evenodd" clip-rule="evenodd" d="M111.217 15.4198H121.274V5.36279H111.217V15.4198Z" fill="#E20041"/>
<path fill-rule="evenodd" clip-rule="evenodd" d="M0 30.9199H15.46V15.46H0V30.9199Z" fill="#F14321"/>
<path fill-rule="evenodd" clip-rule="evenodd" d="M15.46 15.4604L30.9199 30.9204H15.46V15.4604Z" fill="#F86410"/>
<path fill-rule="evenodd" clip-rule="evenodd" d="M0 46.3811H15.46V30.9211H0V46.3811Z" fill="#E92131"/>
<path fill-rule="evenodd" clip-rule="evenodd" d="M0 77.1321H15.46V61.252H0V77.1321Z" fill="#E20041"/>
<path fill-rule="evenodd" clip-rule="evenodd" d="M15.46 46.3811H30.9199V30.9211H15.46V46.3811Z" fill="#F14321"/>
<path fill-rule="evenodd" clip-rule="evenodd" d="M30.9199 46.3811H46.3787V30.9211H30.9199V46.3811Z" fill="#F86410"/>
<path fill-rule="evenodd" clip-rule="evenodd" d="M30.9199 15.8802H46.3787V0H30.9199V15.8802Z" fill="#FF8500"/>
<path fill-rule="evenodd" clip-rule="evenodd" d="M15.46 46.3811H30.9199V61.8398L15.46 46.3811Z" fill="#E92131"/>
<path fill-rule="evenodd" clip-rule="evenodd" d="M30.9199 61.8398H46.3787V46.3811H30.9199V61.8398Z" fill="#F14321"/>
</g>
<defs>
<clipPath id="clip0">
<rect width="320" height="76.7367" fill="white"/>
</clipPath>
</defs>
</svg>
